#N canvas -6 3 2560 1357 10;
#X text 151 264 creation arguments are OSC address;
#X text 153 225 set message to change OSC address;
#X text 138 35 1 Set IP Address : network address;
#X text 138 55 2 Set Ports (sending and listening);
#X text 138 74 3 Set OSC Addresses (routing osc data;
#X text 129 13 Key Settings;
#X floatatom 17 181 5 0 0 0 - - - 0;
#N canvas 951 458 1104 776 oscReceive 0;
#X obj 55 184 netreceive -u -b;
#X msg 78 143 listen 0;
#X text 152 143 stop listening;
#X text 64 58 packets from network;
#X text 173 177 UDP packets \, binary output, f 13;
#X obj 45 314 print;
#X obj 45 272 oscparse;
#X text 150 114 listen on port 8000;
#X obj 177 269 oscparse;
#X obj 177 293 list trim;
#X floatatom 104 431 5 0 0 0 - - - 0;
#X text 241 267 Parse the OSC message;
#X obj 177 319 route unity;
#X msg 66 115 listen 8000;
#X obj 66 84 loadbang;
#X obj 103 408 route count1;
#X obj 104 458 s osccount1;
#X floatatom 204 432 5 0 0 0 - - - 0;
#X floatatom 303 431 5 0 0 0 - - - 0;
#X floatatom 398 431 5 0 0 0 - - - 0;
#X floatatom 489 432 5 0 0 0 - - - 0;
#X floatatom 582 434 5 0 0 0 - - - 0;
#X floatatom 675 431 5 0 0 0 - - - 0;
#X obj 203 409 route count2;
#X obj 204 459 s osccount2;
#X obj 301 408 route count3;
#X obj 303 458 s osccount3;
#X obj 397 408 route count4;
#X obj 398 458 s osccount4;
#X obj 488 409 route count5;
#X obj 489 459 s osccount5;
#X obj 581 411 route count6;
#X obj 582 461 s osccount6;
#X obj 674 408 route count7;
#X obj 675 458 s osccount7;
#X floatatom 773 431 5 0 0 0 - - - 0;
#X obj 772 408 route count8;
#X obj 773 458 s osccount8;
#X floatatom 101 533 5 0 0 0 - - - 0;
#X obj 101 510 route collected;
#X obj 101 560 s osccollected;
#X connect 0 0 6 0;
#X connect 0 0 8 0;
#X connect 1 0 0 0;
#X connect 6 0 5 0;
#X connect 8 0 9 0;
#X connect 9 0 12 0;
#X connect 10 0 16 0;
#X connect 12 0 15 0;
#X connect 12 0 23 0;
#X connect 12 0 25 0;
#X connect 12 0 27 0;
#X connect 12 0 29 0;
#X connect 12 0 31 0;
#X connect 12 0 33 0;
#X connect 12 0 36 0;
#X connect 12 0 39 0;
#X connect 13 0 0 0;
#X connect 14 0 13 0;
#X connect 15 0 10 0;
#X connect 17 0 24 0;
#X connect 18 0 26 0;
#X connect 19 0 28 0;
#X connect 20 0 30 0;
#X connect 21 0 32 0;
#X connect 22 0 34 0;
#X connect 23 0 17 0;
#X connect 25 0 18 0;
#X connect 27 0 19 0;
#X connect 29 0 20 0;
#X connect 31 0 21 0;
#X connect 33 0 22 0;
#X connect 35 0 37 0;
#X connect 36 0 35 0;
#X connect 38 0 40 0;
#X connect 39 0 38 0;
#X restore 21 129 pd oscReceive;
#X obj 21 23 tgl 15 0 empty empty empty 17 7 0 10 #fcfcfc #000000 #000000
0 1;
#X msg 21 48 \; pd dsp \$1;
#X obj 18 265 oscformat PD message;
#X msg 50 226 set PD message;
#N canvas 1100 794 450 300 oscSend 0;
#X msg 158 207 disconnect;
#X obj 61 253 netsend -u -b;
#X obj 59 55 list prepend send;
#X obj 59 80 list trim;
#X msg 150 175 connect 127.0.0.1 8001;
#X obj 59 29 r oscOut;
#X text 301 163 send to port 8001;
#X msg 147 148 connect localhost 8001;
#X obj 147 108 loadbang;
#X connect 0 0 1 0;
#X connect 2 0 3 0;
#X connect 3 0 1 0;
#X connect 4 0 1 0;
#X connect 5 0 2 0;
#X connect 7 0 1 0;
#X connect 8 0 7 0;
#X restore 21 105 pd oscSend;
#X obj 18 300 s oscOut;
#X obj 743 102 loadbang;
#X floatatom 745 160 5 0 0 0 - - - 0;
#X obj 719 207 metro;
#X obj 652 208 sel 0;
#X obj 717 241 bng 15 250 50 0 empty empty empty 17 7 0 10 #fcfcfc
#000000 #000000;
#X obj 717 270 int 1;
#X floatatom 709 309 5 0 0 0 - - - 0;
#X obj 709 344 % 8;
#X obj 711 379 + 1;
#X floatatom 711 449 5 0 0 0 - - - 0;
#X obj 702 532 sel 1;
#X obj 764 530 sel 2;
#X obj 831 531 sel 3;
#X obj 683 153 tgl 15 0 empty empty empty 17 7 0 10 #fcfcfc #000000
#000000 0 1;
#X obj 573 212 loadbang;
#X obj 640 253 bng 15 250 50 0 empty empty empty 17 7 0 10 #fcfcfc
#000000 #000000;
#X msg 626 286 -1;
#X obj 890 533 sel 4;
#X obj 952 531 sel 5;
#X obj 1019 532 sel 6;
#X obj 1077 530 sel 7;
#X obj 1144 531 sel 8;
#X obj 680 568 bng 15 250 50 0 empty empty empty 17 7 0 10 #fcfcfc
#000000 #000000;
#X obj 763 574 bng 15 250 50 0 empty empty empty 17 7 0 10 #fcfcfc
#000000 #000000;
#X obj 826 576 bng 15 250 50 0 empty empty empty 17 7 0 10 #fcfcfc
#000000 #000000;
#X obj 895 582 bng 15 250 50 0 empty empty empty 17 7 0 10 #fcfcfc
#000000 #000000;
#X obj 955 580 bng 15 250 50 0 empty empty empty 17 7 0 10 #fcfcfc
#000000 #000000;
#X obj 1018 582 bng 15 250 50 0 empty empty empty 17 7 0 10 #fcfcfc
#000000 #000000;
#X obj 1090 581 bng 15 250 50 0 empty empty empty 17 7 0 10 #fcfcfc
#000000 #000000;
#X obj 1150 579 bng 15 250 50 0 empty empty empty 17 7 0 10 #fcfcfc
#000000 #000000;
#X obj 808 296 + 1;
#X obj 683 622 s One;
#X obj 748 622 s Two;
#X obj 815 622 s Three;
#X obj 893 619 s Four;
#X obj 963 617 s Five;
#X obj 1032 619 s Six;
#X obj 1096 616 s Seven;
#X obj 1165 611 s Eight;
#X obj 513 715 receive One;
#X obj 656 703 receive Two;
#X obj 772 706 receive Three;
#X obj 896 705 receive Four;
#X obj 1010 705 receive Five;
#X obj 1135 708 receive Six;
#X obj 1233 703 receive Seven;
#X obj 1351 701 receive Eight;
#X obj 559 756 bng 15 250 50 0 empty empty empty 17 7 0 10 #fcfcfc
#000000 #000000;
#X obj 678 762 bng 15 250 50 0 empty empty empty 17 7 0 10 #fcfcfc
#000000 #000000;
#X obj 805 768 bng 15 250 50 0 empty empty empty 17 7 0 10 #fcfcfc
#000000 #000000;
#X obj 910 768 bng 15 250 50 0 empty empty empty 17 7 0 10 #fcfcfc
#000000 #000000;
#X obj 1027 767 bng 15 250 50 0 empty empty empty 17 7 0 10 #fcfcfc
#000000 #000000;
#X obj 1149 769 bng 15 250 50 0 empty empty empty 17 7 0 10 #fcfcfc
#000000 #000000;
#X obj 1250 771 bng 15 250 50 0 empty empty empty 17 7 0 10 #fcfcfc
#000000 #000000;
#X obj 1368 774 bng 15 250 50 0 empty empty empty 17 7 0 10 #fcfcfc
#000000 #000000;
#N canvas 837 83 789 639 snair 0;
#X obj 141 176 noise~;
#X obj 140 499 dac~;
#X obj 142 212 *~ 1;
#X obj 150 347 clip~ -0.9 0.9;
#X obj 143 403 *~;
#X obj 143 447 *~ 1;
#X obj 60 287 *~ 0.1;
#X obj 265 120 bng 15 250 50 0 empty empty empty 17 7 0 10 #fcfcfc
#000000 #000000;
#X obj 341 190 bng 15 250 50 0 empty empty empty 17 7 0 10 #fcfcfc
#000000 #000000;
#X msg 337 260 0.25 50;
#X obj 422 239 bng 15 250 50 0 empty empty empty 17 7 0 10 #fcfcfc
#000000 #000000;
#X msg 419 276 0 300;
#X obj 272 347 line;
#X floatatom 271 383 5 0 0 0 - - - 0;
#X obj 51 234 hip~ 1000;
#X obj 266 84 bng 15 250 50 0 empty empty empty 17 7 0 10 #fcfcfc #000000
#000000;
#X obj 266 58 inlet;
#X msg 258 274 1 3, f 4;
#X obj 336 137 delay 3;
#X obj 140 263 hip~ 10000;
#X obj 157 303 *~ 2;
#X obj 419 195 delay 50;
#X text 100 126 snare sound;
#X connect 0 0 2 0;
#X connect 2 0 19 0;
#X connect 3 0 4 0;
#X connect 4 0 5 0;
#X connect 5 0 1 0;
#X connect 5 0 1 1;
#X connect 7 0 17 0;
#X connect 7 0 18 0;
#X connect 8 0 9 0;
#X connect 8 0 21 0;
#X connect 9 0 12 0;
#X connect 10 0 11 0;
#X connect 11 0 12 0;
#X connect 12 0 13 0;
#X connect 13 0 4 1;
#X connect 14 0 6 0;
#X connect 15 0 7 0;
#X connect 16 0 15 0;
#X connect 17 0 12 0;
#X connect 18 0 8 0;
#X connect 19 0 20 0;
#X connect 20 0 3 0;
#X connect 21 0 10 0;
#X restore 1030 881 pd snair;
#N canvas 620 185 669 748 kick 0;
#X obj 141 176 noise~;
#X obj 140 499 dac~;
#X obj 142 212 *~ 1;
#X obj 141 356 clip~ -0.9 0.9;
#X obj 143 403 *~;
#X obj 143 447 *~ 1;
#X obj 60 287 *~ 0.1;
#X obj 265 120 bng 15 250 50 0 empty empty empty 17 7 0 10 #fcfcfc
#000000 #000000;
#X obj 341 190 bng 15 250 50 0 empty empty empty 17 7 0 10 #fcfcfc
#000000 #000000;
#X msg 337 260 0.25 50;
#X obj 419 195 delay 50;
#X obj 422 239 bng 15 250 50 0 empty empty empty 17 7 0 10 #fcfcfc
#000000 #000000;
#X msg 419 276 0 300;
#X obj 272 347 line;
#X floatatom 271 383 5 0 0 0 - - - 0;
#X obj 141 303 *~ 20;
#X obj 336 137 delay 5;
#X msg 258 274 1 5, f 4;
#X obj 266 84 bng 15 250 50 0 empty empty empty 17 7 0 10 #fcfcfc #000000
#000000;
#X obj 266 58 inlet;
#X obj 51 234 hip~ 2000;
#X obj 140 263 bp~ 200 4;
#X text 100 126 kick sound;
#X connect 0 0 2 0;
#X connect 0 0 20 0;
#X connect 2 0 21 0;
#X connect 3 0 4 0;
#X connect 4 0 5 0;
#X connect 5 0 1 0;
#X connect 5 0 1 1;
#X connect 6 0 3 0;
#X connect 7 0 17 0;
#X connect 7 0 16 0;
#X connect 8 0 9 0;
#X connect 8 0 10 0;
#X connect 9 0 13 0;
#X connect 10 0 11 0;
#X connect 11 0 12 0;
#X connect 12 0 13 0;
#X connect 13 0 14 0;
#X connect 14 0 4 1;
#X connect 15 0 3 0;
#X connect 16 0 8 0;
#X connect 17 0 13 0;
#X connect 18 0 7 0;
#X connect 19 0 18 0;
#X connect 20 0 6 0;
#X connect 21 0 15 0;
#X restore 904 882 pd kick;
#X obj 590 788 spigot;
#X obj 595 824 bng 15 250 50 0 empty empty empty 17 7 0 10 #fcfcfc
#000000 #000000;
#X obj 625 758 tgl 15 0 empty empty empty 17 7 0 10 #fcfcfc #000000
#000000 0 1;
#X obj 709 782 spigot;
#X obj 712 817 bng 15 250 50 0 empty empty empty 17 7 0 10 #fcfcfc
#000000 #000000;
#X obj 743 758 tgl 15 0 empty empty empty 17 7 0 10 #fcfcfc #000000
#000000 0 1;
#X obj 824 793 spigot;
#X obj 827 828 bng 15 250 50 0 empty empty empty 17 7 0 10 #fcfcfc
#000000 #000000;
#X obj 858 765 tgl 15 0 empty empty empty 17 7 0 10 #fcfcfc #000000
#000000 0 1;
#X obj 948 794 spigot;
#X obj 951 829 bng 15 250 50 0 empty empty empty 17 7 0 10 #fcfcfc
#000000 #000000;
#X obj 982 762 tgl 15 0 empty empty empty 17 7 0 10 #fcfcfc #000000
#000000 0 1;
#X obj 1062 799 spigot;
#X obj 1065 834 bng 15 250 50 0 empty empty empty 17 7 0 10 #fcfcfc
#000000 #000000;
#X obj 1096 765 tgl 15 0 empty empty empty 17 7 0 10 #fcfcfc #000000
#000000 0 1;
#X obj 1165 795 spigot;
#X obj 1168 836 bng 15 250 50 0 empty empty empty 17 7 0 10 #fcfcfc
#000000 #000000;
#X obj 1200 768 tgl 15 0 empty empty empty 17 7 0 10 #fcfcfc #000000
#000000 0 1;
#X obj 1269 805 spigot;
#X obj 1263 840 bng 15 250 50 0 empty empty empty 17 7 0 10 #fcfcfc
#000000 #000000;
#X obj 1308 772 tgl 15 0 empty empty empty 17 7 0 10 #fcfcfc #000000
#000000 0 1;
#X obj 1400 798 spigot;
#X obj 1403 833 bng 15 250 50 0 empty empty empty 17 7 0 10 #fcfcfc
#000000 #000000;
#X obj 1441 769 tgl 15 0 empty empty empty 17 7 0 10 #fcfcfc #000000
#000000 0 1;
#N canvas 424 243 905 628 shortSnare 0;
#X obj 141 176 noise~;
#X obj 140 499 dac~;
#X obj 142 212 *~ 1;
#X obj 141 356 clip~ -0.9 0.9;
#X obj 143 403 *~;
#X obj 143 447 *~ 1;
#X obj 60 287 *~ 0.1;
#X obj 265 120 bng 15 250 50 0 empty empty empty 17 7 0 10 #fcfcfc
#000000 #000000;
#X obj 341 190 bng 15 250 50 0 empty empty empty 17 7 0 10 #fcfcfc
#000000 #000000;
#X obj 422 239 bng 15 250 50 0 empty empty empty 17 7 0 10 #fcfcfc
#000000 #000000;
#X obj 272 347 line;
#X floatatom 271 383 5 0 0 0 - - - 0;
#X obj 266 84 bng 15 250 50 0 empty empty empty 17 7 0 10 #fcfcfc #000000
#000000;
#X obj 266 58 inlet;
#X obj 51 234 hip~ 2000;
#X obj 141 303 *~ 2;
#X obj 140 263 lop~ 2000;
#X obj 336 137 delay 2;
#X msg 337 260 0.25 2;
#X obj 419 195 delay 2;
#X msg 258 274 1 2, f 4;
#X msg 419 276 0 100;
#X text 54 98 short snare sound;
#X connect 0 0 2 0;
#X connect 0 0 14 0;
#X connect 2 0 16 0;
#X connect 3 0 4 0;
#X connect 4 0 5 0;
#X connect 5 0 1 0;
#X connect 5 0 1 1;
#X connect 6 0 3 0;
#X connect 7 0 20 0;
#X connect 7 0 17 0;
#X connect 8 0 18 0;
#X connect 8 0 19 0;
#X connect 9 0 21 0;
#X connect 10 0 11 0;
#X connect 11 0 4 1;
#X connect 12 0 7 0;
#X connect 13 0 12 0;
#X connect 14 0 6 0;
#X connect 15 0 3 0;
#X connect 16 0 15 0;
#X connect 17 0 8 0;
#X connect 18 0 10 0;
#X connect 19 0 9 0;
#X connect 20 0 10 0;
#X connect 21 0 10 0;
#X restore 1268 875 pd shortSnare;
#N canvas 312 28 742 549 shortKick 0;
#X obj 141 176 noise~;
#X obj 140 499 dac~;
#X obj 142 212 *~ 1;
#X obj 141 356 clip~ -0.9 0.9;
#X obj 143 403 *~;
#X obj 143 447 *~ 1;
#X obj 60 287 *~ 0.1;
#X obj 265 120 bng 15 250 50 0 empty empty empty 17 7 0 10 #fcfcfc
#000000 #000000;
#X obj 341 190 bng 15 250 50 0 empty empty empty 17 7 0 10 #fcfcfc
#000000 #000000;
#X obj 422 239 bng 15 250 50 0 empty empty empty 17 7 0 10 #fcfcfc
#000000 #000000;
#X obj 272 347 line;
#X floatatom 271 383 5 0 0 0 - - - 0;
#X obj 141 303 *~ 20;
#X obj 266 84 bng 15 250 50 0 empty empty empty 17 7 0 10 #fcfcfc #000000
#000000;
#X obj 266 58 inlet;
#X obj 51 234 hip~ 2000;
#X obj 140 263 bp~ 200 4;
#X obj 336 137 delay 2;
#X msg 258 274 1 2, f 4;
#X msg 337 260 0.25 2;
#X obj 419 195 delay 2;
#X msg 419 276 0 200;
#X text 100 126 short kick sound;
#X connect 0 0 2 0;
#X connect 0 0 15 0;
#X connect 2 0 16 0;
#X connect 3 0 4 0;
#X connect 4 0 5 0;
#X connect 5 0 1 0;
#X connect 5 0 1 1;
#X connect 6 0 3 0;
#X connect 7 0 18 0;
#X connect 7 0 17 0;
#X connect 8 0 19 0;
#X connect 8 0 20 0;
#X connect 9 0 21 0;
#X connect 10 0 11 0;
#X connect 11 0 4 1;
#X connect 12 0 3 0;
#X connect 13 0 7 0;
#X connect 14 0 13 0;
#X connect 15 0 6 0;
#X connect 16 0 12 0;
#X connect 17 0 8 0;
#X connect 18 0 10 0;
#X connect 19 0 10 0;
#X connect 20 0 9 0;
#X connect 21 0 10 0;
#X restore 1151 872 pd shortKick;
#X obj 670 113 loadbang;
#X obj 589 733 r osccount1;
#X obj 714 729 r osccount2;
#X obj 823 730 r osccount3;
#X obj 943 730 r osccount4;
#X obj 1053 730 r osccount5;
#X obj 1169 731 r osccount6;
#X obj 1272 730 r osccount7;
#X obj 1399 729 r osccount8;
#X obj 2107 639 bng 15 250 50 0 empty empty empty 17 7 0 10 #fcfcfc
#000000 #000000;
#X obj 2107 578 tgl 15 0 empty empty empty 17 7 0 10 #fcfcfc #000000
#000000 0 1;
#X obj 2106 603 metro 100;
#N canvas 0 50 450 250 (subpatch) 0;
#X array CollectableSFX(Sine) 100 float 1;
#A 0 0 0 0 0 0 0 0 0 0 0 0 0 0 0 0 0 0 0 0 0 0 0 0 0 0 0 0 0 0 0 0
0 0 0 0 0 0 0 0 0 0 0 0 0 0 0 0 0 0 0 0 0 0 0 0 0 0 0 0 0 0 0 0 0 0
0 0 0 0 0 0 0 0 0 0 0 0 0 0 0 0 0 0 0 0 0 0 0 0 0 0 0 0 0 0 0 0 0 0
0;
#X coords 0 1 99 -1 200 140 1 0 0;
#X restore 2190 520 graph;
#X obj 2106 554 loadbang;
#X obj 1793 707 dac~;
#X floatatom 1795 455 5 36 144 0 - - - 0;
#X obj 1794 672 *~ 0.25;
#X obj 1795 482 mtof;
#X obj 1795 513 osc~;
#X obj 1835 513 bng 15 250 50 0 empty empty empty 17 7 0 10 #fcfcfc
#000000 #000000;
#X msg 1835 530 1 5;
#X obj 1877 528 del 10;
#X obj 1877 546 pack 0 500;
#X obj 1877 565 line~;
#X obj 1877 588 *~;
#X obj 1877 610 *~;
#X obj 1795 629 *~;
#X floatatom 1934 517 5 0 0 0 - - - 0;
#X obj 1934 476 loadbang;
#X msg 1934 495 2000;
#X floatatom 1796 413 5 0 0 0 - - - 0;
#X msg 1786 386 97;
#X msg 1817 386 87;
#X obj 1785 194 bng 15 250 50 0 empty empty empty 17 7 0 10 #fcfcfc
#000000 #000000;
#X obj 1787 238 f;
#X obj 1826 238 + 1;
#X floatatom 1787 268 5 0 0 0 - - - 0;
#X msg 1818 200 0;
#X obj 1746 180 f 0;
#X obj 1787 316 mod 3;
#X floatatom 1786 340 5 0 0 0 - - - 0;
#X obj 1787 293 spigot;
#X obj 1836 292 < 3;
#X obj 1771 134 bng 15 250 50 0 empty empty empty 17 7 0 10 #fcfcfc
#000000 #000000;
#X obj 1784 158 metro 100;
#X obj 2105 666 tabwrite~ CollectableSFX(Sine);
#X text 2028 73 Collectable SFX;
#X text 1648 135 Click To Play Sound;
#X obj 1785 364 sel 0 1;
#X obj 1771 114 r osccollected;
#X text 871 59 BGM;
#X msg 743 131 200;
#X connect 6 0 10 0;
#X connect 8 0 9 0;
#X connect 10 0 13 0;
#X connect 11 0 10 0;
#X connect 14 0 148 0;
#X connect 15 0 16 1;
#X connect 16 0 18 0;
#X connect 17 0 29 0;
#X connect 18 0 19 0;
#X connect 19 0 20 0;
#X connect 19 0 44 0;
#X connect 20 0 21 0;
#X connect 21 0 22 0;
#X connect 22 0 23 0;
#X connect 23 0 24 0;
#X connect 23 0 25 0;
#X connect 23 0 26 0;
#X connect 23 0 31 0;
#X connect 23 0 32 0;
#X connect 23 0 33 0;
#X connect 23 0 34 0;
#X connect 23 0 35 0;
#X connect 24 0 36 0;
#X connect 25 0 37 0;
#X connect 26 0 38 0;
#X connect 27 0 16 0;
#X connect 27 0 17 0;
#X connect 28 0 29 0;
#X connect 29 0 30 0;
#X connect 30 0 19 0;
#X connect 31 0 39 0;
#X connect 32 0 40 0;
#X connect 33 0 41 0;
#X connect 34 0 42 0;
#X connect 35 0 43 0;
#X connect 36 0 45 0;
#X connect 37 0 46 0;
#X connect 38 0 47 0;
#X connect 39 0 48 0;
#X connect 40 0 49 0;
#X connect 41 0 50 0;
#X connect 42 0 51 0;
#X connect 43 0 52 0;
#X connect 44 0 19 1;
#X connect 53 0 61 0;
#X connect 54 0 62 0;
#X connect 55 0 63 0;
#X connect 56 0 64 0;
#X connect 57 0 65 0;
#X connect 58 0 66 0;
#X connect 59 0 67 0;
#X connect 60 0 68 0;
#X connect 61 0 71 0;
#X connect 62 0 74 0;
#X connect 63 0 77 0;
#X connect 64 0 80 0;
#X connect 65 0 83 0;
#X connect 66 0 86 0;
#X connect 67 0 89 0;
#X connect 68 0 92 0;
#X connect 71 0 72 0;
#X connect 72 0 70 0;
#X connect 73 0 71 1;
#X connect 74 0 75 0;
#X connect 75 0 70 0;
#X connect 76 0 74 1;
#X connect 77 0 78 0;
#X connect 78 0 69 0;
#X connect 79 0 77 1;
#X connect 80 0 81 0;
#X connect 81 0 70 0;
#X connect 82 0 80 1;
#X connect 83 0 84 0;
#X connect 84 0 70 0;
#X connect 85 0 83 1;
#X connect 86 0 87 0;
#X connect 87 0 70 0;
#X connect 88 0 86 1;
#X connect 89 0 90 0;
#X connect 90 0 96 0;
#X connect 91 0 89 1;
#X connect 92 0 93 0;
#X connect 93 0 95 0;
#X connect 94 0 92 1;
#X connect 97 0 27 0;
#X connect 98 0 73 0;
#X connect 99 0 76 0;
#X connect 100 0 79 0;
#X connect 101 0 82 0;
#X connect 102 0 85 0;
#X connect 103 0 88 0;
#X connect 104 0 91 0;
#X connect 105 0 94 0;
#X connect 106 0 142 0;
#X connect 107 0 108 0;
#X connect 108 0 106 0;
#X connect 110 0 107 0;
#X connect 112 0 114 0;
#X connect 113 0 111 0;
#X connect 113 0 111 1;
#X connect 114 0 115 0;
#X connect 114 0 116 0;
#X connect 115 0 123 0;
#X connect 116 0 117 0;
#X connect 116 0 118 0;
#X connect 117 0 120 0;
#X connect 118 0 119 0;
#X connect 119 0 120 0;
#X connect 120 0 121 0;
#X connect 120 0 121 1;
#X connect 121 0 122 0;
#X connect 121 0 122 1;
#X connect 122 0 123 1;
#X connect 123 0 113 0;
#X connect 123 0 142 0;
#X connect 124 0 119 1;
#X connect 125 0 126 0;
#X connect 126 0 124 0;
#X connect 127 0 112 0;
#X connect 128 0 127 0;
#X connect 129 0 127 0;
#X connect 130 0 131 0;
#X connect 131 0 132 0;
#X connect 131 0 133 0;
#X connect 132 0 131 1;
#X connect 133 0 138 0;
#X connect 133 0 139 0;
#X connect 134 0 131 1;
#X connect 135 0 131 0;
#X connect 136 0 137 0;
#X connect 137 0 145 0;
#X connect 138 0 136 0;
#X connect 139 0 138 1;
#X connect 140 0 135 0;
#X connect 140 0 141 0;
#X connect 141 0 130 0;
#X connect 145 0 128 0;
#X connect 145 1 129 0;
#X connect 146 0 140 0;
#X connect 148 0 15 0;
