#N canvas 0 0 2560 1037 10;
#X text 151 264 creation arguments are OSC address;
#X text 153 225 set message to change OSC address;
#X text 138 35 1 Set IP Address : network address;
#X text 138 55 2 Set Ports (sending and listening);
#X text 138 74 3 Set OSC Addresses (routing osc data;
#X text 129 13 Key Settings;
#X floatatom 17 181 5 0 0 0 - - - 0;
#N canvas 0 0 1196 600 oscReceive 0;
#X obj 55 184 netreceive -u -b;
#X msg 78 143 listen 0;
#X text 152 143 stop listening;
#X text 64 58 packets from network;
#X text 173 177 UDP packets \, binary output, f 13;
#X obj 45 314 print;
#X obj 45 272 oscparse;
#X text 150 114 listen on port 8000;
#X obj 177 269 oscparse;
#X obj 177 293 list trim;
#X floatatom 104 431 5 0 0 0 - - - 0;
#X text 241 267 Parse the OSC message;
#X obj 177 319 route unity;
#X msg 66 115 listen 8000;
#X obj 66 84 loadbang;
#X obj 103 408 route count1;
#X obj 104 458 s osccount1;
#X floatatom 204 432 5 0 0 0 - - - 0;
#X floatatom 303 431 5 0 0 0 - - - 0;
#X floatatom 398 431 5 0 0 0 - - - 0;
#X floatatom 489 432 5 0 0 0 - - - 0;
#X floatatom 582 434 5 0 0 0 - - - 0;
#X floatatom 675 431 5 0 0 0 - - - 0;
#X obj 203 409 route count2;
#X obj 204 459 s osccount2;
#X obj 301 408 route count3;
#X obj 303 458 s osccount3;
#X obj 397 408 route count4;
#X obj 398 458 s osccount4;
#X obj 488 409 route count5;
#X obj 489 459 s osccount5;
#X obj 581 411 route count6;
#X obj 582 461 s osccount6;
#X obj 674 408 route count7;
#X obj 675 458 s osccount7;
#X floatatom 773 431 5 0 0 0 - - - 0;
#X obj 772 408 route count8;
#X obj 773 458 s osccount8;
#X floatatom 101 533 5 0 0 0 - - - 0;
#X obj 101 510 route collected;
#X obj 101 560 s osccollected;
#X floatatom 214 534 5 0 0 0 - - - 0;
#X obj 214 511 route gameOver;
#X obj 214 561 s oscgameOver;
#X floatatom 345 534 5 0 0 0 - - - 0;
#X obj 345 511 route gameStart;
#X obj 345 561 s oscgameStart;
#X obj 467 510 route clicked;
#X obj 467 560 s oscclicked;
#X floatatom 467 533 5 0 0 0 - - - 0;
#X floatatom 581 536 5 0 0 0 - - - 0;
#X floatatom 675 535 5 0 0 0 - - - 0;
#X obj 581 513 route jump;
#X obj 581 563 s oscjump;
#X obj 675 512 route death;
#X obj 675 562 s oscdeath;
#X floatatom 765 534 5 0 0 0 - - - 0;
#X obj 765 511 route respawn;
#X obj 765 561 s oscrespawn;
#X floatatom 99 622 5 0 0 0 - - - 0;
#X obj 99 599 route start;
#X obj 99 649 s oscstart;
#X connect 0 0 6 0;
#X connect 0 0 8 0;
#X connect 1 0 0 0;
#X connect 6 0 5 0;
#X connect 8 0 9 0;
#X connect 9 0 12 0;
#X connect 10 0 16 0;
#X connect 12 0 15 0;
#X connect 12 0 23 0;
#X connect 12 0 25 0;
#X connect 12 0 27 0;
#X connect 12 0 29 0;
#X connect 12 0 31 0;
#X connect 12 0 33 0;
#X connect 12 0 36 0;
#X connect 12 0 39 0;
#X connect 12 0 42 0;
#X connect 12 0 45 0;
#X connect 12 0 47 0;
#X connect 12 0 52 0;
#X connect 12 0 54 0;
#X connect 12 0 57 0;
#X connect 12 0 60 0;
#X connect 13 0 0 0;
#X connect 14 0 13 0;
#X connect 15 0 10 0;
#X connect 17 0 24 0;
#X connect 18 0 26 0;
#X connect 19 0 28 0;
#X connect 20 0 30 0;
#X connect 21 0 32 0;
#X connect 22 0 34 0;
#X connect 23 0 17 0;
#X connect 25 0 18 0;
#X connect 27 0 19 0;
#X connect 29 0 20 0;
#X connect 31 0 21 0;
#X connect 33 0 22 0;
#X connect 35 0 37 0;
#X connect 36 0 35 0;
#X connect 38 0 40 0;
#X connect 39 0 38 0;
#X connect 41 0 43 0;
#X connect 42 0 41 0;
#X connect 44 0 46 0;
#X connect 45 0 44 0;
#X connect 47 0 49 0;
#X connect 49 0 48 0;
#X connect 50 0 53 0;
#X connect 51 0 55 0;
#X connect 52 0 50 0;
#X connect 54 0 51 0;
#X connect 56 0 58 0;
#X connect 57 0 56 0;
#X connect 59 0 61 0;
#X connect 60 0 59 0;
#X restore 21 129 pd oscReceive;
#X obj 21 23 tgl 15 0 empty empty empty 17 7 0 10 #fcfcfc #000000 #000000
0 1;
#X msg 21 48 \; pd dsp \$1;
#X obj 18 265 oscformat PD message;
#X msg 50 226 set PD message;
#N canvas 727 97 450 300 oscSend 0;
#X msg 158 207 disconnect;
#X obj 61 253 netsend -u -b;
#X obj 59 55 list prepend send;
#X obj 59 80 list trim;
#X msg 150 175 connect 127.0.0.1 8001;
#X obj 59 29 r oscOut;
#X text 301 163 send to port 8001;
#X msg 147 148 connect localhost 8001;
#X obj 147 108 loadbang;
#X connect 0 0 1 0;
#X connect 2 0 3 0;
#X connect 3 0 1 0;
#X connect 4 0 1 0;
#X connect 5 0 2 0;
#X connect 7 0 1 0;
#X connect 8 0 7 0;
#X restore 21 105 pd oscSend;
#X obj 18 300 s oscOut;
#X obj 3176 1645 bng 15 250 50 0 empty empty empty 17 7 0 10 #fcfcfc
#000000 #000000;
#X obj 3176 1584 tgl 15 0 empty empty empty 17 7 0 10 #fcfcfc #000000
#000000 0 1;
#X obj 3175 1609 metro 100;
#N canvas 0 50 450 250 (subpatch) 0;
#X array CollectableSFX(Sine) 100 float 1;
#A 0 0 0 0 0 0 0 0 0 0 0 0 0 0 0 0 0 0 0 0 0 0 0 0 0 0 0 0 0 0 0 0
0 0 0 0 0 0 0 0 0 0 0 0 0 0 0 0 0 0 0 0 0 0 0 0 0 0 0 0 0 0 0 0 0 0
0 0 0 0 0 0 0 0 0 0 0 0 0 0 0 0 0 0 0 0 0 0 0 0 0 0 0 0 0 0 0 0 0 0
0;
#X coords 0 1 99 -1 200 140 1 0 0;
#X restore 3259 1526 graph;
#X obj 3175 1560 loadbang;
#X obj 2913 1733 dac~;
#X floatatom 2915 1481 5 36 144 0 - - - 0;
#X obj 2915 1508 mtof;
#X obj 2915 1539 osc~;
#X obj 2955 1539 bng 15 250 50 0 empty empty empty 17 7 0 10 #fcfcfc
#000000 #000000;
#X msg 2955 1556 1 5;
#X obj 2997 1554 del 10;
#X obj 2997 1572 pack 0 500;
#X obj 2997 1591 line~;
#X obj 2997 1614 *~;
#X obj 2997 1636 *~;
#X obj 2915 1655 *~;
#X floatatom 3054 1543 5 0 0 0 - - - 0;
#X obj 3054 1502 loadbang;
#X msg 3054 1521 2000;
#X floatatom 2916 1439 5 0 0 0 - - - 0;
#X msg 2906 1412 97;
#X msg 2937 1412 87;
#X obj 2905 1220 bng 15 250 50 0 empty empty empty 17 7 0 10 #fcfcfc
#000000 #000000;
#X obj 2907 1264 f;
#X obj 2946 1264 + 1;
#X floatatom 2907 1294 5 0 0 0 - - - 0;
#X msg 2938 1226 0;
#X obj 2866 1206 f 0;
#X obj 2907 1342 mod 3;
#X floatatom 2906 1366 5 0 0 0 - - - 0;
#X obj 2907 1319 spigot;
#X obj 2956 1318 < 3;
#X obj 2891 1160 bng 15 250 50 0 empty empty empty 17 7 0 10 #fcfcfc
#000000 #000000;
#X obj 2904 1184 metro 100;
#X obj 3174 1672 tabwrite~ CollectableSFX(Sine);
#X text 3064 1076 Collectable SFX;
#X text 2769 1161 Click To Play Sound;
#X obj 2905 1390 sel 0 1;
#X obj 2891 1140 r osccollected;
#X obj 788 1129 bng 15 250 50 0 empty empty empty 17 7 0 10 #fcfcfc
#000000 #000000;
#X obj 788 1169 f;
#X obj 826 1169 + 1;
#X floatatom 788 1196 5 0 0 0 - - - 0;
#X msg 803 1147 0;
#X obj 788 1342 hradio 15 1 0 6 empty empty empty 0 -8 0 10 #fcfcfc
#000000 #000000 0;
#N canvas 0 50 450 250 (subpatch) 0;
#X array seq1 6 float 3;
#A 0 -148.802 76.8 55.2 52.8 50.3999 28.8;
#X coords 0 120 6 0 120 50 1 0 0;
#X restore 794 1372 graph;
#X obj 788 1437 array get seq1;
#X floatatom 787 1505 5 0 0 0 - - - 0;
#X obj 787 1531 mtof;
#X obj 792 1738 dac~;
#X obj 471 1681 bng 15 250 50 0 empty empty empty 17 7 0 10 #fcfcfc
#000000 #000000;
#X obj 471 1640 tgl 15 0 empty empty empty 17 7 0 10 #fcfcfc #000000
#000000 0 1;
#X obj 471 1661 metro 100;
#X obj 740 1117 f 0;
#X floatatom 788 1316 5 0 0 0 - - - 0;
#X obj 788 1234 spigot;
#N canvas 0 50 450 250 (subpatch) 0;
#X array GameOver(Saw) 100 float 1;
#A 0 0 0 0 0 0 0 0 0 0 0 0 0 0 0 0 0 0 0 0 0 0 0 0 0 0 0 0 0 0 0 0
0 0 0 0 0 0 0 0 0 0 0 0 0 0 0 0 0 0 0 0 0 0 0 0 0 0 0 0 0 0 0 0 0 0
0 0 0 0 0 0 0 0 0 0 0 0 0 0 0 0 0 0 0 0 0 0 0 0 0 0 0 0 0 0 0 0 0 0
0;
#X coords 0 1 99 -1 200 140 1 0 0;
#X restore 554 1562 graph;
#X obj 471 1622 loadbang;
#X obj 1366 1697 bng 15 250 50 0 empty empty empty 17 7 0 10 #fcfcfc
#000000 #000000;
#X obj 1366 1657 tgl 15 0 empty empty empty 17 7 0 10 #fcfcfc #000000
#000000 0 1;
#X obj 1366 1677 metro 100;
#N canvas 0 50 450 250 (subpatch) 0;
#X array GameStart 100 float 1;
#A 0 0 0 0 0 0 0 0 0 0 0 0 0 0 0 0 0 0 0 0 0 0 0 0 0 0 0 0 0 0 0 0
0 0 0 0 0 0 0 0 0 0 0 0 0 0 0 0 0 0 0 0 0 0 0 0 0 0 0 0 0 0 0 0 0 0
0 0 0 0 0 0 0 0 0 0 0 0 0 0 0 0 0 0 0 0 0 0 0 0 0 0 0 0 0 0 0 0 0 0
0;
#X coords 0 1 99 -1 200 140 1 0 0;
#X restore 1438 1570 graph;
#X obj 1366 1637 loadbang;
#X obj 788 1067 bng 15 250 50 0 empty empty empty 17 7 0 10 #fcfcfc
#000000 #000000;
#X obj 880 1547 bng 15 250 50 0 empty empty empty 17 7 0 10 #fcfcfc
#000000 #000000;
#X msg 870 1566 1 5;
#X obj 907 1588 pack 0 500;
#X obj 907 1607 line~;
#X obj 907 1630 *~;
#X obj 907 1652 *~;
#X obj 789 1669 *~;
#X floatatom 964 1568 5 0 0 0 - - - 0;
#X obj 964 1527 loadbang;
#X obj 907 1570 del 10;
#X obj 834 1211 < 6;
#X obj 788 1259 mod 6;
#X msg 964 1546 300;
#X obj 921 1678 delwrite~ delayname1 1000;
#X obj 921 1694 delread~ delayname1 200;
#X obj 788 1100 metro 300;
#X text 788 994 GameOver SFX;
#X text 665 1067 Click To Play Sound;
#X obj 788 1028 r oscgameOver;
#X text 2222 1873 The End;
#X obj 2914 1698 *~ 1;
#X obj 4098 1553 bng 15 250 50 0 empty empty empty 17 7 0 10 #fcfcfc
#000000 #000000;
#X obj 4098 1492 tgl 15 0 empty empty empty 17 7 0 10 #fcfcfc #000000
#000000 0 1;
#X obj 4097 1517 metro 100;
#N canvas 0 50 450 250 (subpatch) 0;
#X array ButtonClickSFX(Sine) 100 float 1;
#A 0 0 0 0 0 0 0 0 0 0 0 0 0 0 0 0 0 0 0 0 0 0 0 0 0 0 0 0 0 0 0 0
0 0 0 0 0 0 0 0 0 0 0 0 0 0 0 0 0 0 0 0 0 0 0 0 0 0 0 0 0 0 0 0 0 0
0 0 0 0 0 0 0 0 0 0 0 0 0 0 0 0 0 0 0 0 0 0 0 0 0 0 0 0 0 0 0 0 0 0
0;
#X coords 0 1 99 -1 200 140 1 0 0;
#X restore 4181 1434 graph;
#X obj 4097 1468 loadbang;
#X obj 3785 1641 dac~;
#X floatatom 3787 1389 5 36 144 0 - - - 0;
#X obj 3787 1416 mtof;
#X obj 3837 1447 bng 15 250 50 0 empty empty empty 17 7 0 10 #fcfcfc
#000000 #000000;
#X msg 3827 1464 1 5;
#X obj 3869 1462 del 10;
#X obj 3869 1480 pack 0 500;
#X obj 3869 1499 line~;
#X obj 3869 1522 *~;
#X obj 3869 1544 *~;
#X obj 3787 1563 *~;
#X floatatom 3926 1451 5 0 0 0 - - - 0;
#X obj 3926 1410 loadbang;
#X obj 3785 1235 bng 15 250 50 0 empty empty empty 17 7 0 10 #fcfcfc
#000000 #000000;
#X obj 3787 1279 f;
#X obj 3826 1279 + 1;
#X floatatom 3787 1309 5 0 0 0 - - - 0;
#X msg 3818 1241 0;
#X obj 3746 1221 f 0;
#X obj 3787 1334 spigot;
#X obj 3771 1175 bng 15 250 50 0 empty empty empty 17 7 0 10 #fcfcfc
#000000 #000000;
#X obj 3784 1199 metro 100;
#X text 3648 1176 Click To Play Sound;
#X text 4015 1082 Button Click SFX;
#X obj 3836 1333 < 2;
#X obj 3787 1447 osc~;
#X msg 3926 1429 100;
#X obj 4096 1580 tabwrite~ ButtonClickSFX(Sine);
#X msg 3787 1367 43;
#X obj 1366 1724 tabwrite~ GameStart(Saw);
#X obj 471 1708 tabwrite~ GameOver(Saw);
#X obj 1177 158 loadbang;
#X floatatom 1177 215 5 0 0 0 - - - 0;
#X obj 1143 262 metro;
#X obj 1101 262 sel 0;
#X obj 1143 298 bng 15 250 50 0 empty empty empty 17 7 0 10 #fcfcfc
#000000 #000000;
#X obj 1143 328 int 1;
#X floatatom 1143 365 5 0 0 0 - - - 0;
#X obj 1143 400 % 8;
#X obj 1143 431 + 1;
#X floatatom 1143 470 5 0 0 0 - - - 0;
#X obj 934 555 sel 1;
#X obj 996 554 sel 2;
#X obj 1057 553 sel 3;
#X obj 1114 198 tgl 15 0 empty empty empty 17 7 0 10 #fcfcfc #000000
#000000 0 1;
#X obj 1044 297 loadbang;
#X obj 1101 297 bng 15 250 50 0 empty empty empty 17 7 0 10 #fcfcfc
#000000 #000000;
#X msg 1101 327 -1;
#X obj 1124 553 sel 4;
#X obj 1187 554 sel 5;
#X obj 1251 555 sel 6;
#X obj 1312 554 sel 7;
#X obj 1378 554 sel 8;
#X obj 934 581 bng 15 250 50 0 empty empty empty 17 7 0 10 #fcfcfc
#000000 #000000;
#X obj 996 581 bng 15 250 50 0 empty empty empty 17 7 0 10 #fcfcfc
#000000 #000000;
#X obj 1057 581 bng 15 250 50 0 empty empty empty 17 7 0 10 #fcfcfc
#000000 #000000;
#X obj 1124 580 bng 15 250 50 0 empty empty empty 17 7 0 10 #fcfcfc
#000000 #000000;
#X obj 1187 582 bng 15 250 50 0 empty empty empty 17 7 0 10 #fcfcfc
#000000 #000000;
#X obj 1251 582 bng 15 250 50 0 empty empty empty 17 7 0 10 #fcfcfc
#000000 #000000;
#X obj 1312 582 bng 15 250 50 0 empty empty empty 17 7 0 10 #fcfcfc
#000000 #000000;
#X obj 1378 581 bng 15 250 50 0 empty empty empty 17 7 0 10 #fcfcfc
#000000 #000000;
#X obj 1201 327 + 1;
#X obj 934 610 s One;
#X obj 996 610 s Two;
#X obj 1057 609 s Three;
#X obj 1124 610 s Four;
#X obj 1187 609 s Five;
#X obj 1251 609 s Six;
#X obj 1312 610 s Seven;
#X obj 1378 608 s Eight;
#X msg 1177 187 204;
#X obj 615 759 bng 15 250 50 0 empty empty empty 17 7 0 10 #fcfcfc
#000000 #000000;
#X obj 615 785 spigot;
#X obj 615 817 bng 15 250 50 0 empty empty empty 17 7 0 10 #fcfcfc
#000000 #000000;
#X obj 648 758 tgl 15 0 empty empty empty 17 7 0 10 #fcfcfc #000000
#000000 0 1;
#X obj 615 663 receive One;
#X obj 753 759 bng 15 250 50 0 empty empty empty 17 7 0 10 #fcfcfc
#000000 #000000;
#X obj 753 785 spigot;
#X obj 753 817 bng 15 250 50 0 empty empty empty 17 7 0 10 #fcfcfc
#000000 #000000;
#X obj 786 758 tgl 15 0 empty empty empty 17 7 0 10 #fcfcfc #000000
#000000 0 1;
#X obj 895 755 bng 15 250 50 0 empty empty empty 17 7 0 10 #fcfcfc
#000000 #000000;
#X obj 895 781 spigot;
#X obj 895 813 bng 15 250 50 0 empty empty empty 17 7 0 10 #fcfcfc
#000000 #000000;
#X obj 928 754 tgl 15 0 empty empty empty 17 7 0 10 #fcfcfc #000000
#000000 0 1;
#X obj 1043 756 bng 15 250 50 0 empty empty empty 17 7 0 10 #fcfcfc
#000000 #000000;
#X obj 1043 782 spigot;
#X obj 1043 814 bng 15 250 50 0 empty empty empty 17 7 0 10 #fcfcfc
#000000 #000000;
#X obj 1076 755 tgl 15 0 empty empty empty 17 7 0 10 #fcfcfc #000000
#000000 0 1;
#X obj 1184 755 bng 15 250 50 0 empty empty empty 17 7 0 10 #fcfcfc
#000000 #000000;
#X obj 1184 781 spigot;
#X obj 1184 813 bng 15 250 50 0 empty empty empty 17 7 0 10 #fcfcfc
#000000 #000000;
#X obj 1217 754 tgl 15 0 empty empty empty 17 7 0 10 #fcfcfc #000000
#000000 0 1;
#X obj 1322 755 bng 15 250 50 0 empty empty empty 17 7 0 10 #fcfcfc
#000000 #000000;
#X obj 1322 781 spigot;
#X obj 1322 813 bng 15 250 50 0 empty empty empty 17 7 0 10 #fcfcfc
#000000 #000000;
#X obj 1355 754 tgl 15 0 empty empty empty 17 7 0 10 #fcfcfc #000000
#000000 0 1;
#X obj 1458 753 bng 15 250 50 0 empty empty empty 17 7 0 10 #fcfcfc
#000000 #000000;
#X obj 1458 779 spigot;
#X obj 1458 811 bng 15 250 50 0 empty empty empty 17 7 0 10 #fcfcfc
#000000 #000000;
#X obj 1491 752 tgl 15 0 empty empty empty 17 7 0 10 #fcfcfc #000000
#000000 0 1;
#X obj 1592 751 bng 15 250 50 0 empty empty empty 17 7 0 10 #fcfcfc
#000000 #000000;
#X obj 1592 777 spigot;
#X obj 1592 809 bng 15 250 50 0 empty empty empty 17 7 0 10 #fcfcfc
#000000 #000000;
#X obj 1625 750 tgl 15 0 empty empty empty 17 7 0 10 #fcfcfc #000000
#000000 0 1;
#X obj 753 663 receive Two;
#X obj 895 659 receive Three;
#X obj 1043 660 receive Four;
#X obj 1184 659 receive Five;
#X obj 1322 659 receive Six;
#X obj 1458 657 receive Seven;
#X obj 1592 655 receive Eight;
#N canvas 837 83 789 639 snair 0;
#X obj 141 176 noise~;
#X obj 140 499 dac~;
#X obj 142 212 *~ 1;
#X obj 150 347 clip~ -0.9 0.9;
#X obj 143 403 *~;
#X obj 60 287 *~ 0.1;
#X obj 265 120 bng 15 250 50 0 empty empty empty 17 7 0 10 #fcfcfc
#000000 #000000;
#X obj 341 190 bng 15 250 50 0 empty empty empty 17 7 0 10 #fcfcfc
#000000 #000000;
#X msg 337 260 0.25 50;
#X obj 422 239 bng 15 250 50 0 empty empty empty 17 7 0 10 #fcfcfc
#000000 #000000;
#X msg 419 276 0 300;
#X obj 272 347 line;
#X floatatom 271 383 5 0 0 0 - - - 0;
#X obj 51 234 hip~ 1000;
#X obj 266 84 bng 15 250 50 0 empty empty empty 17 7 0 10 #fcfcfc #000000
#000000;
#X obj 266 58 inlet;
#X msg 258 274 1 3, f 4;
#X obj 336 137 delay 3;
#X obj 140 263 hip~ 10000;
#X obj 157 303 *~ 2;
#X obj 419 195 delay 50;
#X text 100 126 snare sound;
#X obj 143 447 *~ 0.7;
#X connect 0 0 2 0;
#X connect 2 0 18 0;
#X connect 3 0 4 0;
#X connect 4 0 22 0;
#X connect 6 0 16 0;
#X connect 6 0 17 0;
#X connect 7 0 8 0;
#X connect 7 0 20 0;
#X connect 8 0 11 0;
#X connect 9 0 10 0;
#X connect 10 0 11 0;
#X connect 11 0 12 0;
#X connect 12 0 4 1;
#X connect 13 0 5 0;
#X connect 14 0 6 0;
#X connect 15 0 14 0;
#X connect 16 0 11 0;
#X connect 17 0 7 0;
#X connect 18 0 19 0;
#X connect 19 0 3 0;
#X connect 20 0 9 0;
#X connect 22 0 1 0;
#X connect 22 0 1 1;
#X restore 1107 879 pd snair;
#N canvas 620 185 669 748 kick 0;
#X obj 141 176 noise~;
#X obj 140 499 dac~;
#X obj 142 212 *~ 1;
#X obj 141 356 clip~ -0.9 0.9;
#X obj 143 403 *~;
#X obj 60 287 *~ 0.1;
#X obj 265 120 bng 15 250 50 0 empty empty empty 17 7 0 10 #fcfcfc
#000000 #000000;
#X obj 341 190 bng 15 250 50 0 empty empty empty 17 7 0 10 #fcfcfc
#000000 #000000;
#X msg 337 260 0.25 50;
#X obj 419 195 delay 50;
#X obj 422 239 bng 15 250 50 0 empty empty empty 17 7 0 10 #fcfcfc
#000000 #000000;
#X msg 419 276 0 300;
#X obj 272 347 line;
#X floatatom 271 383 5 0 0 0 - - - 0;
#X obj 141 303 *~ 20;
#X obj 336 137 delay 5;
#X msg 258 274 1 5, f 4;
#X obj 266 84 bng 15 250 50 0 empty empty empty 17 7 0 10 #fcfcfc #000000
#000000;
#X obj 266 58 inlet;
#X obj 51 234 hip~ 2000;
#X obj 140 263 bp~ 200 4;
#X text 100 126 kick sound;
#X obj 143 447 *~ 0.7;
#X connect 0 0 2 0;
#X connect 0 0 19 0;
#X connect 2 0 20 0;
#X connect 3 0 4 0;
#X connect 4 0 22 0;
#X connect 5 0 3 0;
#X connect 6 0 16 0;
#X connect 6 0 15 0;
#X connect 7 0 8 0;
#X connect 7 0 9 0;
#X connect 8 0 12 0;
#X connect 9 0 10 0;
#X connect 10 0 11 0;
#X connect 11 0 12 0;
#X connect 12 0 13 0;
#X connect 13 0 4 1;
#X connect 14 0 3 0;
#X connect 15 0 7 0;
#X connect 16 0 12 0;
#X connect 17 0 6 0;
#X connect 18 0 17 0;
#X connect 19 0 5 0;
#X connect 20 0 14 0;
#X connect 22 0 1 0;
#X connect 22 0 1 1;
#X restore 981 879 pd kick;
#N canvas 424 243 905 628 shortSnare 0;
#X obj 141 176 noise~;
#X obj 140 499 dac~;
#X obj 142 212 *~ 1;
#X obj 141 356 clip~ -0.9 0.9;
#X obj 143 403 *~;
#X obj 60 287 *~ 0.1;
#X obj 265 120 bng 15 250 50 0 empty empty empty 17 7 0 10 #fcfcfc
#000000 #000000;
#X obj 341 190 bng 15 250 50 0 empty empty empty 17 7 0 10 #fcfcfc
#000000 #000000;
#X obj 422 239 bng 15 250 50 0 empty empty empty 17 7 0 10 #fcfcfc
#000000 #000000;
#X obj 272 347 line;
#X floatatom 271 383 5 0 0 0 - - - 0;
#X obj 266 84 bng 15 250 50 0 empty empty empty 17 7 0 10 #fcfcfc #000000
#000000;
#X obj 266 58 inlet;
#X obj 51 234 hip~ 2000;
#X obj 141 303 *~ 2;
#X obj 140 263 lop~ 2000;
#X obj 336 137 delay 2;
#X msg 337 260 0.25 2;
#X obj 419 195 delay 2;
#X msg 258 274 1 2, f 4;
#X msg 419 276 0 100;
#X text 54 98 short snare sound;
#X obj 143 447 *~ 0.7;
#X connect 0 0 2 0;
#X connect 0 0 13 0;
#X connect 2 0 15 0;
#X connect 3 0 4 0;
#X connect 4 0 22 0;
#X connect 5 0 3 0;
#X connect 6 0 19 0;
#X connect 6 0 16 0;
#X connect 7 0 17 0;
#X connect 7 0 18 0;
#X connect 8 0 20 0;
#X connect 9 0 10 0;
#X connect 10 0 4 1;
#X connect 11 0 6 0;
#X connect 12 0 11 0;
#X connect 13 0 5 0;
#X connect 14 0 3 0;
#X connect 15 0 14 0;
#X connect 16 0 7 0;
#X connect 17 0 9 0;
#X connect 18 0 8 0;
#X connect 19 0 9 0;
#X connect 20 0 9 0;
#X connect 22 0 1 0;
#X connect 22 0 1 1;
#X restore 1332 879 pd shortSnare;
#N canvas 312 28 742 549 shortKick 0;
#X obj 141 176 noise~;
#X obj 140 499 dac~;
#X obj 142 212 *~ 1;
#X obj 141 356 clip~ -0.9 0.9;
#X obj 143 403 *~;
#X obj 60 287 *~ 0.1;
#X obj 265 120 bng 15 250 50 0 empty empty empty 17 7 0 10 #fcfcfc
#000000 #000000;
#X obj 341 190 bng 15 250 50 0 empty empty empty 17 7 0 10 #fcfcfc
#000000 #000000;
#X obj 422 239 bng 15 250 50 0 empty empty empty 17 7 0 10 #fcfcfc
#000000 #000000;
#X obj 272 347 line;
#X floatatom 271 383 5 0 0 0 - - - 0;
#X obj 141 303 *~ 20;
#X obj 266 84 bng 15 250 50 0 empty empty empty 17 7 0 10 #fcfcfc #000000
#000000;
#X obj 266 58 inlet;
#X obj 51 234 hip~ 2000;
#X obj 140 263 bp~ 200 4;
#X obj 336 137 delay 2;
#X msg 258 274 1 2, f 4;
#X msg 337 260 0.25 2;
#X obj 419 195 delay 2;
#X msg 419 276 0 200;
#X text 100 126 short kick sound;
#X obj 143 447 *~ 0.7;
#X connect 0 0 2 0;
#X connect 0 0 14 0;
#X connect 2 0 15 0;
#X connect 3 0 4 0;
#X connect 4 0 22 0;
#X connect 5 0 3 0;
#X connect 6 0 17 0;
#X connect 6 0 16 0;
#X connect 7 0 18 0;
#X connect 7 0 19 0;
#X connect 8 0 20 0;
#X connect 9 0 10 0;
#X connect 10 0 4 1;
#X connect 11 0 3 0;
#X connect 12 0 6 0;
#X connect 13 0 12 0;
#X connect 14 0 5 0;
#X connect 15 0 11 0;
#X connect 16 0 7 0;
#X connect 17 0 9 0;
#X connect 18 0 9 0;
#X connect 19 0 8 0;
#X connect 20 0 9 0;
#X connect 22 0 1 0;
#X connect 22 0 1 1;
#X restore 1221 879 pd shortKick;
#X obj 648 719 r osccount1;
#X obj 786 719 r osccount2;
#X obj 928 718 r osccount3;
#X obj 1076 719 r osccount4;
#X obj 1217 718 r osccount5;
#X obj 1355 718 r osccount6;
#X obj 1491 718 r osccount7;
#X obj 1625 717 r osccount8;
#X text 1150 125 BGM;
#X obj 2810 339 bng 15 250 50 0 empty empty empty 17 7 0 10 #fcfcfc
#000000 #000000;
#X msg 2810 424 0.25 50;
#X obj 2889 354 delay 50;
#X obj 2889 398 bng 15 250 50 0 empty empty empty 17 7 0 10 #fcfcfc
#000000 #000000;
#X msg 2889 435 0 300;
#X obj 2746 511 line;
#X floatatom 2746 546 5 0 0 0 - - - 0;
#X msg 2746 437 1 10;
#X obj 2810 301 delay 10;
#X floatatom 2259 707 5 0 0 0 - - - 0;
#X obj 2258 676 mtof;
#X obj 2258 637 + 71;
#X floatatom 2311 667 5 0 0 0 - - - 0;
#X msg 2071 523 1;
#X msg 2110 523 1;
#X msg 2151 523 8;
#X msg 2199 523 8;
#X msg 2241 523 10;
#X msg 2282 523 10;
#X msg 2321 522 8;
#X msg 2361 521 6;
#X msg 2403 521 6;
#X msg 2447 521 5;
#X msg 2491 521 5;
#X msg 2531 520 3;
#X msg 2577 520 3;
#X msg 2620 521 1;
#X obj 2184 286 bng 15 250 50 0 empty empty empty 17 7 0 10 #fcfcfc
#000000 #000000;
#X floatatom 2176 354 5 0 0 0 - - - 0;
#X obj 2255 315 + 1;
#X obj 2091 299 bng 15 250 50 0 empty empty empty 17 7 0 10 #fcfcfc
#000000 #000000;
#X msg 2116 296 -1;
#X obj 2184 315 int -1;
#X obj 2253 821 dac~;
#X obj 2174 439 select 0 1 2 3 4 5 6 7 8 9 10 11 12 13 14, f 66;
#X obj 2175 391 mod 14;
#X obj 2259 735 phasor~;
#X text 2012 298 reset bang;
#X text 2203 275 click to make sound;
#X text 2553 252 jump SFX;
#X obj 3811 324 noise~;
#X obj 3809 632 dac~;
#X obj 3811 352 *~ 1;
#X obj 3822 506 clip~ -0.9 0.9;
#X obj 3813 551 *~;
#X obj 3928 292 bng 15 250 50 0 empty empty empty 17 7 0 10 #fcfcfc
#000000 #000000;
#X obj 4000 360 bng 15 250 50 0 empty empty empty 17 7 0 10 #fcfcfc
#000000 #000000;
#X obj 4156 447 bng 15 250 50 0 empty empty empty 17 7 0 10 #fcfcfc
#000000 #000000;
#X obj 3928 505 line;
#X floatatom 3928 536 5 0 0 0 - - - 0;
#X obj 3822 453 *~ 20;
#X obj 4076 401 bng 15 250 50 0 empty empty empty 17 7 0 10 #fcfcfc
#000000 #000000;
#X obj 4076 375 delay 100;
#X obj 3746 432 *~ 0.2;
#X msg 4000 384 0.5 100;
#X obj 4232 497 bng 15 250 50 0 empty empty empty 17 7 0 10 #fcfcfc
#000000 #000000;
#X msg 4232 530 0 100;
#X msg 4076 426 0.7 50;
#X obj 4156 416 delay 50;
#X msg 4157 478 1 200;
#X obj 4232 462 delay 200;
#X msg 3928 422 0.3 100;
#X obj 4000 331 delay 100;
#X obj 3745 403 lop~ 7000;
#X obj 3812 403 bp~ 400 4;
#X text 3801 292 click to make sound;
#X obj 3152 346 noise~;
#X obj 3146 628 dac~;
#X obj 3153 382 *~ 1;
#X obj 3155 482 clip~ -0.9 0.9;
#X obj 3154 573 *~;
#X obj 3153 599 *~ 1;
#X obj 3284 296 bng 15 250 50 0 empty empty empty 17 7 0 10 #fcfcfc
#000000 #000000;
#X obj 3353 342 bng 15 250 50 0 empty empty empty 17 7 0 10 #fcfcfc
#000000 #000000;
#X obj 3594 426 bng 15 250 50 0 empty empty empty 17 7 0 10 #fcfcfc
#000000 #000000;
#X msg 3594 453 0 300;
#X obj 3284 515 line;
#X floatatom 3284 558 5 0 0 0 - - - 0;
#X msg 3353 371 0.5 100;
#X obj 3468 383 bng 15 250 50 0 empty empty empty 17 7 0 10 #fcfcfc
#000000 #000000;
#X msg 3468 408 0.25 50;
#X obj 3468 357 delay 100;
#X obj 3153 426 bp~ 1000 4;
#X obj 3082 470 *~ 0.2;
#X obj 3081 442 hip~ 3000;
#X msg 3284 399 1 30;
#X obj 3353 311 delay 30;
#X obj 3594 398 delay 100;
#X obj 3154 453 *~ 10;
#X text 3156 297 click to make sound;
#X text 3277 247 Death SFX;
#X text 3931 249 Respawn;
#X obj 3771 1155 r oscclicked;
#X obj 3284 269 r oscdeath;
#X obj 2184 256 r oscjump;
#X obj 3928 272 r oscrespawn;
#X obj 1083 158 r oscstart;
#X obj 3786 1606 *~ 4;
#X obj 3812 580 *~ 2;
#X obj 2259 776 *~;
#X obj 787 1558 phasor~;
#X obj 1742 1334 hradio 15 1 0 6 empty empty empty 0 -8 0 10 #fcfcfc
#000000 #000000 0;
#N canvas 0 50 450 250 (subpatch) 0;
#X array seq2 6 float 3;
#A 0 55.2004 33.6 40.8 50.4 57.6 67.2001;
#X coords 0 120 6 0 120 50 1 0 0;
#X restore 1751 1372 graph;
#X floatatom 1742 1500 5 0 0 0 - - - 0;
#X obj 1742 1526 mtof;
#X obj 1741 1736 dac~;
#X obj 1742 1437 array get seq2;
#X obj 1816 1542 bng 15 250 50 0 empty empty empty 17 7 0 10 #fcfcfc
#000000 #000000;
#X msg 1806 1561 1 5;
#X obj 1848 1596 line~;
#X obj 1847 1615 *~;
#X obj 1847 1637 *~;
#X floatatom 1905 1559 5 0 0 0 - - - 0;
#X obj 1905 1518 loadbang;
#X obj 1848 1559 del 10;
#X obj 1746 1650 *~;
#X obj 1747 1680 *~ 1;
#X obj 1742 1549 phasor~;
#X obj 1966 1040 r oscgameStart;
#X obj 1966 1123 bng 15 250 50 0 empty empty empty 17 7 0 10 #fcfcfc
#000000 #000000;
#X obj 1966 1163 f;
#X obj 2004 1163 + 1;
#X floatatom 1966 1190 5 0 0 0 - - - 0;
#X msg 1981 1141 0;
#X obj 1918 1111 f 0;
#X floatatom 1742 1310 5 0 0 0 - - - 0;
#X obj 1966 1228 spigot;
#X obj 1966 1061 bng 15 250 50 0 empty empty empty 17 7 0 10 #fcfcfc
#000000 #000000;
#X obj 2012 1205 < 6;
#X obj 1966 1253 mod 6;
#X text 1835 1061 Click To Play Sound;
#X text 1964 991 GameStart SFX;
#X floatatom 1980 1505 5 0 0 0 - - - 0;
#X obj 1980 1531 mtof;
#X obj 1979 1741 dac~;
#X obj 2054 1547 bng 15 250 50 0 empty empty empty 17 7 0 10 #fcfcfc
#000000 #000000;
#X msg 2044 1566 1 5;
#X obj 2086 1601 line~;
#X obj 2085 1620 *~;
#X obj 2085 1642 *~;
#X floatatom 2144 1564 5 0 0 0 - - - 0;
#X obj 2143 1523 loadbang;
#X obj 2086 1564 del 10;
#X obj 1984 1655 *~;
#X obj 1985 1685 *~ 1;
#X msg 2143 1542 500;
#X obj 1985 1715 *~ 1;
#X obj 2086 1582 pack 0 200;
#X obj 1848 1577 pack 0 400;
#X obj 1981 1331 hradio 15 1 0 6 empty empty empty 0 -8 0 10 #fcfcfc
#000000 #000000 0;
#N canvas 0 50 450 250 (subpatch) 0;
#X array seq3 6 float 3;
#A 0 38.4007 62.4022 40.8013 21.6 60 48;
#X coords 0 120 6 0 120 50 1 0 0;
#X restore 1990 1369 graph;
#X floatatom 1981 1307 5 0 0 0 - - - 0;
#X obj 1980 1554 osc~;
#X obj 1981 1434 array get seq3;
#X msg 1905 1537 200;
#X obj 1747 1710 *~ 0.3;
#X floatatom 2228 1513 5 0 0 0 - - - 0;
#X obj 2228 1539 mtof;
#X obj 2227 1749 dac~;
#X obj 2302 1555 bng 15 250 50 0 empty empty empty 17 7 0 10 #fcfcfc
#000000 #000000;
#X msg 2292 1574 1 5;
#X obj 2334 1609 line~;
#X obj 2333 1628 *~;
#X obj 2333 1650 *~;
#X floatatom 2392 1572 5 0 0 0 - - - 0;
#X obj 2391 1531 loadbang;
#X obj 2334 1572 del 10;
#X obj 2232 1663 *~;
#X obj 2233 1693 *~ 1;
#X obj 2233 1723 *~ 1;
#X obj 2334 1590 pack 0 200;
#X obj 2229 1339 hradio 15 1 0 2 empty empty empty 0 -8 0 10 #fcfcfc
#000000 #000000 0;
#N canvas 0 50 450 250 (subpatch) 0;
#X array seq4 2 float 3;
#A 0 43.2 48;
#X coords 0 120 2 0 120 50 1 0 0;
#X restore 2238 1377 graph;
#X floatatom 2229 1315 5 0 0 0 - - - 0;
#X obj 2229 1442 array get seq4;
#X obj 2102 1264 % 2;
#X obj 2228 1562 osc~;
#X msg 2391 1550 100;
#X obj 790 1704 *~ 0.5;
#X obj 1966 1094 metro 200;
#X connect 6 0 10 0;
#X connect 8 0 9 0;
#X connect 10 0 13 0;
#X connect 11 0 10 0;
#X connect 14 0 49 0;
#X connect 15 0 16 0;
#X connect 16 0 14 0;
#X connect 18 0 15 0;
#X connect 20 0 21 0;
#X connect 21 0 22 0;
#X connect 21 0 23 0;
#X connect 22 0 30 0;
#X connect 23 0 24 0;
#X connect 23 0 25 0;
#X connect 24 0 27 0;
#X connect 25 0 26 0;
#X connect 26 0 27 0;
#X connect 27 0 28 0;
#X connect 27 0 28 1;
#X connect 28 0 29 0;
#X connect 28 0 29 1;
#X connect 29 0 30 1;
#X connect 30 0 49 0;
#X connect 30 0 99 0;
#X connect 31 0 26 1;
#X connect 32 0 33 0;
#X connect 33 0 31 0;
#X connect 34 0 20 0;
#X connect 35 0 34 0;
#X connect 36 0 34 0;
#X connect 37 0 38 0;
#X connect 38 0 39 0;
#X connect 38 0 40 0;
#X connect 39 0 38 1;
#X connect 40 0 45 0;
#X connect 40 0 46 0;
#X connect 41 0 38 1;
#X connect 42 0 38 0;
#X connect 43 0 44 0;
#X connect 44 0 52 0;
#X connect 45 0 43 0;
#X connect 46 0 45 1;
#X connect 47 0 42 0;
#X connect 47 0 48 0;
#X connect 48 0 37 0;
#X connect 52 0 35 0;
#X connect 52 1 36 0;
#X connect 53 0 47 0;
#X connect 54 0 55 0;
#X connect 55 0 56 0;
#X connect 55 0 57 0;
#X connect 56 0 55 1;
#X connect 57 0 70 0;
#X connect 57 0 89 0;
#X connect 58 0 55 1;
#X connect 59 0 61 0;
#X connect 61 0 62 0;
#X connect 62 0 63 0;
#X connect 63 0 79 0;
#X connect 63 0 329 0;
#X connect 65 0 135 0;
#X connect 66 0 67 0;
#X connect 67 0 65 0;
#X connect 68 0 55 0;
#X connect 69 0 59 0;
#X connect 70 0 90 0;
#X connect 72 0 66 0;
#X connect 73 0 134 0;
#X connect 74 0 75 0;
#X connect 75 0 73 0;
#X connect 77 0 74 0;
#X connect 78 0 68 0;
#X connect 78 0 94 0;
#X connect 79 0 80 0;
#X connect 79 0 88 0;
#X connect 80 0 82 0;
#X connect 81 0 82 0;
#X connect 82 0 83 0;
#X connect 82 0 83 1;
#X connect 83 0 84 0;
#X connect 83 0 84 1;
#X connect 84 0 85 1;
#X connect 85 0 92 0;
#X connect 85 0 407 0;
#X connect 86 0 81 1;
#X connect 87 0 91 0;
#X connect 88 0 81 0;
#X connect 89 0 70 1;
#X connect 90 0 69 0;
#X connect 91 0 86 0;
#X connect 93 0 407 0;
#X connect 94 0 54 0;
#X connect 97 0 78 0;
#X connect 99 0 19 0;
#X connect 99 0 19 1;
#X connect 100 0 132 0;
#X connect 101 0 102 0;
#X connect 102 0 100 0;
#X connect 104 0 101 0;
#X connect 106 0 107 0;
#X connect 107 0 108 0;
#X connect 107 0 130 0;
#X connect 108 0 109 0;
#X connect 108 0 110 0;
#X connect 109 0 112 0;
#X connect 110 0 111 0;
#X connect 111 0 112 0;
#X connect 112 0 113 0;
#X connect 112 0 113 1;
#X connect 113 0 114 0;
#X connect 113 0 114 1;
#X connect 114 0 115 1;
#X connect 115 0 132 0;
#X connect 115 0 326 0;
#X connect 116 0 111 1;
#X connect 117 0 131 0;
#X connect 118 0 119 0;
#X connect 119 0 120 0;
#X connect 119 0 121 0;
#X connect 120 0 119 1;
#X connect 121 0 124 0;
#X connect 121 0 129 0;
#X connect 122 0 119 1;
#X connect 123 0 119 0;
#X connect 124 0 133 0;
#X connect 125 0 123 0;
#X connect 125 0 126 0;
#X connect 126 0 118 0;
#X connect 129 0 124 1;
#X connect 130 0 115 0;
#X connect 131 0 116 0;
#X connect 133 0 106 0;
#X connect 136 0 175 0;
#X connect 137 0 138 1;
#X connect 138 0 140 0;
#X connect 139 0 151 0;
#X connect 140 0 141 0;
#X connect 141 0 142 0;
#X connect 141 0 166 0;
#X connect 142 0 143 0;
#X connect 143 0 144 0;
#X connect 144 0 145 0;
#X connect 145 0 146 0;
#X connect 145 0 147 0;
#X connect 145 0 148 0;
#X connect 145 0 153 0;
#X connect 145 0 154 0;
#X connect 145 0 155 0;
#X connect 145 0 156 0;
#X connect 145 0 157 0;
#X connect 146 0 158 0;
#X connect 147 0 159 0;
#X connect 148 0 160 0;
#X connect 149 0 138 0;
#X connect 149 0 139 0;
#X connect 150 0 151 0;
#X connect 151 0 152 0;
#X connect 152 0 141 0;
#X connect 153 0 161 0;
#X connect 154 0 162 0;
#X connect 155 0 163 0;
#X connect 156 0 164 0;
#X connect 157 0 165 0;
#X connect 158 0 167 0;
#X connect 159 0 168 0;
#X connect 160 0 169 0;
#X connect 161 0 170 0;
#X connect 162 0 171 0;
#X connect 163 0 172 0;
#X connect 164 0 173 0;
#X connect 165 0 174 0;
#X connect 166 0 141 1;
#X connect 175 0 137 0;
#X connect 176 0 177 0;
#X connect 177 0 178 0;
#X connect 178 0 217 0;
#X connect 179 0 177 1;
#X connect 180 0 176 0;
#X connect 181 0 182 0;
#X connect 182 0 183 0;
#X connect 183 0 217 0;
#X connect 184 0 182 1;
#X connect 185 0 186 0;
#X connect 186 0 187 0;
#X connect 187 0 216 0;
#X connect 188 0 186 1;
#X connect 189 0 190 0;
#X connect 190 0 191 0;
#X connect 191 0 217 0;
#X connect 192 0 190 1;
#X connect 193 0 194 0;
#X connect 194 0 195 0;
#X connect 195 0 217 0;
#X connect 196 0 194 1;
#X connect 197 0 198 0;
#X connect 198 0 199 0;
#X connect 199 0 217 0;
#X connect 200 0 198 1;
#X connect 201 0 202 0;
#X connect 202 0 203 0;
#X connect 203 0 219 0;
#X connect 204 0 202 1;
#X connect 205 0 206 0;
#X connect 206 0 207 0;
#X connect 207 0 218 0;
#X connect 208 0 206 1;
#X connect 209 0 181 0;
#X connect 210 0 185 0;
#X connect 211 0 189 0;
#X connect 212 0 193 0;
#X connect 213 0 197 0;
#X connect 214 0 201 0;
#X connect 215 0 205 0;
#X connect 220 0 179 0;
#X connect 221 0 184 0;
#X connect 222 0 188 0;
#X connect 223 0 192 0;
#X connect 224 0 196 0;
#X connect 225 0 200 0;
#X connect 226 0 204 0;
#X connect 227 0 208 0;
#X connect 229 0 230 0;
#X connect 229 0 231 0;
#X connect 230 0 234 0;
#X connect 231 0 232 0;
#X connect 232 0 233 0;
#X connect 233 0 234 0;
#X connect 234 0 235 0;
#X connect 235 0 328 1;
#X connect 236 0 234 0;
#X connect 237 0 229 0;
#X connect 238 0 265 0;
#X connect 239 0 238 0;
#X connect 240 0 239 0;
#X connect 240 0 241 0;
#X connect 242 0 240 0;
#X connect 243 0 240 0;
#X connect 244 0 240 0;
#X connect 245 0 240 0;
#X connect 246 0 240 0;
#X connect 247 0 240 0;
#X connect 248 0 240 0;
#X connect 249 0 240 0;
#X connect 250 0 240 0;
#X connect 251 0 240 0;
#X connect 252 0 240 0;
#X connect 253 0 240 0;
#X connect 254 0 240 0;
#X connect 255 0 240 0;
#X connect 256 0 261 0;
#X connect 256 0 237 0;
#X connect 257 0 264 0;
#X connect 258 0 261 1;
#X connect 259 0 260 0;
#X connect 260 0 261 0;
#X connect 261 0 257 0;
#X connect 261 0 258 0;
#X connect 263 0 242 0;
#X connect 263 1 243 0;
#X connect 263 2 244 0;
#X connect 263 3 245 0;
#X connect 263 4 246 0;
#X connect 263 5 247 0;
#X connect 263 6 248 0;
#X connect 263 7 249 0;
#X connect 263 8 250 0;
#X connect 263 9 251 0;
#X connect 263 10 252 0;
#X connect 263 11 253 0;
#X connect 263 12 254 0;
#X connect 263 13 255 0;
#X connect 264 0 263 0;
#X connect 265 0 328 0;
#X connect 269 0 271 0;
#X connect 271 0 292 0;
#X connect 271 0 293 0;
#X connect 273 0 327 0;
#X connect 274 0 290 0;
#X connect 274 0 291 0;
#X connect 275 0 283 0;
#X connect 275 0 281 0;
#X connect 276 0 288 0;
#X connect 276 0 289 0;
#X connect 277 0 278 0;
#X connect 278 0 273 1;
#X connect 279 0 272 0;
#X connect 280 0 286 0;
#X connect 280 0 287 0;
#X connect 281 0 280 0;
#X connect 283 0 277 0;
#X connect 284 0 285 0;
#X connect 285 0 277 0;
#X connect 286 0 277 0;
#X connect 287 0 276 0;
#X connect 288 0 277 0;
#X connect 289 0 284 0;
#X connect 290 0 277 0;
#X connect 291 0 275 0;
#X connect 292 0 282 0;
#X connect 293 0 273 0;
#X connect 295 0 297 0;
#X connect 297 0 311 0;
#X connect 297 0 313 0;
#X connect 298 0 299 0;
#X connect 299 0 300 0;
#X connect 300 0 296 0;
#X connect 300 0 296 1;
#X connect 301 0 314 0;
#X connect 301 0 315 0;
#X connect 302 0 307 0;
#X connect 302 0 310 0;
#X connect 303 0 304 0;
#X connect 304 0 305 0;
#X connect 305 0 306 0;
#X connect 306 0 299 1;
#X connect 307 0 305 0;
#X connect 308 0 309 0;
#X connect 308 0 316 0;
#X connect 309 0 305 0;
#X connect 310 0 308 0;
#X connect 311 0 317 0;
#X connect 312 0 299 0;
#X connect 313 0 312 0;
#X connect 314 0 305 0;
#X connect 315 0 302 0;
#X connect 316 0 303 0;
#X connect 317 0 298 0;
#X connect 321 0 125 0;
#X connect 322 0 301 0;
#X connect 323 0 256 0;
#X connect 324 0 274 0;
#X connect 325 0 149 0;
#X connect 326 0 105 0;
#X connect 326 0 105 1;
#X connect 327 0 270 0;
#X connect 327 0 270 1;
#X connect 328 0 262 0;
#X connect 328 0 262 1;
#X connect 329 0 85 0;
#X connect 330 0 335 0;
#X connect 332 0 333 0;
#X connect 333 0 336 0;
#X connect 333 0 346 0;
#X connect 335 0 332 0;
#X connect 336 0 337 0;
#X connect 336 0 343 0;
#X connect 337 0 338 0;
#X connect 338 0 339 0;
#X connect 338 0 339 1;
#X connect 339 0 340 0;
#X connect 339 0 340 1;
#X connect 340 0 344 1;
#X connect 341 0 377 1;
#X connect 342 0 383 0;
#X connect 343 0 377 0;
#X connect 344 0 345 0;
#X connect 345 0 384 0;
#X connect 346 0 344 0;
#X connect 347 0 356 0;
#X connect 348 0 349 0;
#X connect 349 0 350 0;
#X connect 349 0 351 0;
#X connect 350 0 349 1;
#X connect 351 0 355 0;
#X connect 351 0 357 0;
#X connect 352 0 349 1;
#X connect 353 0 349 0;
#X connect 354 0 330 0;
#X connect 355 0 358 0;
#X connect 356 0 353 0;
#X connect 356 0 408 0;
#X connect 357 0 355 1;
#X connect 358 0 354 0;
#X connect 358 0 380 0;
#X connect 358 0 404 0;
#X connect 361 0 362 0;
#X connect 362 0 364 0;
#X connect 362 0 381 0;
#X connect 364 0 365 0;
#X connect 364 0 371 0;
#X connect 365 0 366 0;
#X connect 366 0 367 0;
#X connect 366 0 367 1;
#X connect 367 0 368 0;
#X connect 367 0 368 1;
#X connect 368 0 372 1;
#X connect 369 0 376 1;
#X connect 370 0 374 0;
#X connect 371 0 376 0;
#X connect 372 0 373 0;
#X connect 373 0 375 0;
#X connect 374 0 369 0;
#X connect 375 0 363 1;
#X connect 375 0 363 0;
#X connect 375 0 134 0;
#X connect 376 0 366 0;
#X connect 377 0 338 0;
#X connect 378 0 382 0;
#X connect 380 0 378 0;
#X connect 381 0 372 0;
#X connect 382 0 361 0;
#X connect 383 0 341 0;
#X connect 384 0 334 0;
#X connect 384 0 334 1;
#X connect 384 0 134 0;
#X connect 385 0 386 0;
#X connect 386 0 388 0;
#X connect 386 0 405 0;
#X connect 388 0 389 0;
#X connect 388 0 395 0;
#X connect 389 0 390 0;
#X connect 390 0 391 0;
#X connect 390 0 391 1;
#X connect 391 0 392 0;
#X connect 391 0 392 1;
#X connect 392 0 396 1;
#X connect 393 0 399 1;
#X connect 394 0 406 0;
#X connect 395 0 399 0;
#X connect 396 0 397 0;
#X connect 397 0 398 0;
#X connect 398 0 387 1;
#X connect 398 0 387 0;
#X connect 398 0 134 0;
#X connect 399 0 390 0;
#X connect 400 0 403 0;
#X connect 402 0 400 0;
#X connect 403 0 385 0;
#X connect 404 0 402 0;
#X connect 405 0 396 0;
#X connect 406 0 393 0;
#X connect 407 0 64 0;
#X connect 407 0 64 1;
#X connect 407 0 135 0;
#X connect 408 0 348 0;
